<svg width="60" height="50" viewBox="0 0 60 50" fill="none" xmlns="http://www.w3.org/2000/svg">
<path d="M54.0451 4.96245C50.1824 1.77039 45.0966 0 39.6566 0C34.2167 0 29.1309 1.77039 25.2682 4.96245C22.2747 7.45708 20.3111 10.6223 19.603 14.029C19.5386 14.3777 19.4742 14.7264 19.442 15.0751C19.4099 15.4238 19.3777 15.7725 19.3455 16.1212C19.3133 16.3895 19.3133 16.6846 19.3133 16.9528V19.2597V20.3058V21.3519V33.9324H34.4099H35.6652H36.9206C36.9528 33.6373 36.9528 33.3691 36.9528 33.074V30.794H35.6974H23.0794V21.3251V19.2597V16.9796C23.0794 16.6846 23.0794 16.4163 23.1116 16.1212C23.1438 15.7725 23.176 15.4238 23.2403 15.0751C23.3047 14.7264 23.3691 14.3777 23.4657 14.029C24.1416 11.4002 25.7511 9.0397 27.9399 7.18884C30.9335 4.69421 35.0858 3.13841 39.6566 3.13841C48.7983 3.13841 56.2339 9.33476 56.2339 16.9528C56.2339 20.7618 54.367 24.2221 51.3734 26.7167C49.1524 28.5676 46.3197 29.882 43.1652 30.4453V30.7403V33.0472C43.1652 33.2618 43.1652 33.4496 43.1652 33.6642C47.2532 33.074 51.0515 31.4378 54.0451 28.9431C57.8755 25.7511 60 21.4861 60 16.9528C60 12.4195 57.8755 8.15451 54.0451 4.96245Z" fill="#F7654A"/>
<path d="M23.0794 19.2328H24.3348H25.5901H36.9528V28.7017V29.7479V30.794V33.074C36.9528 33.3691 36.9528 33.6373 36.9206 33.9324C36.8884 34.2811 36.8562 34.6298 36.7919 34.9785C36.7275 35.3272 36.6631 35.676 36.5665 36.0247C35.8906 38.6534 34.2811 41.0139 32.0923 42.8648C29.0987 45.3594 24.9464 46.9152 20.3755 46.9152C11.2339 46.9152 3.79828 40.7189 3.79828 33.1009C3.79828 29.2918 5.66524 25.8315 8.6588 23.3369C10.8798 21.4861 13.7125 20.1717 16.867 19.6084V17.0064C16.867 16.7918 16.867 16.6041 16.867 16.3895C12.779 16.9796 8.98069 18.6159 5.98713 21.1105C2.12446 24.2489 0 28.5139 0 33.0472C0 37.5805 2.12446 41.8187 5.95494 45.0375C9.78541 48.2296 14.9034 50 20.3434 50C25.7833 50 30.8691 48.2296 34.7318 45.0375C38.3369 42.0333 40.4292 38.0901 40.6545 33.8788C40.6545 33.7446 40.6545 33.6105 40.6867 33.4764C40.6867 33.3959 40.6867 33.3423 40.6867 33.2618C40.6867 33.1813 40.6867 33.1277 40.6867 33.0472V30.7403V16.0944H25.5901H24.3348H23.0794C23.0472 16.3895 23.0472 16.6577 23.0472 16.9528L23.0794 19.2328Z" fill="#F7654A"/>
</svg>
